<svg xmlns="http://www.w3.org/2000/svg" id="Ebene_1" viewBox="0 0 68.1 108.7"><defs><style>      .st0 {        fill: #d75d34;      }    </style></defs><path class="st0" d="M0,.4h4.5v33.6H0V.4Z"></path><path class="st0" d="M7.7.4h4.5v13.2h3.7V.4h4.5v33.6h-4.5v-17h-3.7v17h-4.5V.4Z"></path><path class="st0" d="M23,20.7h4.5c-.2,3.5-.5,10.1,1.9,10.1s1.6-2,1.6-3.7c0-8-7.9-11.5-7.9-20S25.2,0,29.1,0s6.5,5.2,6.1,11.6h-4.3c.3-5.2-.2-8.1-1.8-8.1s-1.6,1.2-1.6,3c0,7,8,10.5,8,19.8s-2.4,8-6.2,8c-5.6,0-6.7-6.1-6.2-13.6h0Z"></path><path class="st0" d="M41,.4h6.1l4,33.6h-4.5l-.7-6.8h-4l-.7,6.8h-4.2L41,.4ZM45.6,23.9l-1.7-17.9-1.7,17.9h3.5,0Z"></path><path class="st0" d="M53.3.4h4.8l4.8,22.8V.4h3.7v33.6h-4.4l-5.1-22.4v22.4h-3.7V.4h0Z"></path><path class="st0" d="M0,37.7h4.3c5.9,0,8.5,4.6,8.5,16.8s-2.6,16.8-8.5,16.8H0v-33.6ZM8.3,54.5c0-9.6-1.2-13.5-3.7-13.5v27c2.6,0,3.7-3.9,3.7-13.5Z"></path><path class="st0" d="M18.4,37.7h6.1l4,33.6h-4.5l-.7-6.8h-4l-.7,6.8h-4.2s4-33.6,4-33.6ZM23,61.2l-1.7-17.9-1.7,17.9h3.5,0Z"></path><path class="st0" d="M28.9,37.7h4.6l2.3,27.5,2.4-27.5h4.2l-4.1,33.6h-5.3s-4.1-33.6-4.1-33.6Z"></path><path class="st0" d="M45,37.7h4.5v33.6h-4.5v-33.6Z"></path><path class="st0" d="M53.1,37.7h4.3c5.9,0,8.5,4.6,8.5,16.8s-2.6,16.8-8.5,16.8h-4.3s0-33.6,0-33.6ZM61.3,54.5c0-9.6-1.2-13.5-3.7-13.5v27c2.6,0,3.7-3.9,3.7-13.5Z"></path><path class="st0" d="M0,75.1h4.3v14.5c2-2.4,3.3-8.4,3.1-14.5h4.5c.2,7.2-2.6,13.5-6,15.7l2.7.6,4.3,17.3h-4.7l-3.8-16.9v16.9H0v-33.6Z"></path><path class="st0" d="M13.9,75.1h4.3v13.2h3.6v-13.2h4.3v33.6h-4.3v-17h-3.6v17h-4.3s0-33.6,0-33.6Z"></path><path class="st0" d="M31.3,75.1h5.9l3.8,33.6h-4.3l-.6-6.8h-3.9l-.6,6.8h-4l3.8-33.6h-.1ZM35.7,98.6l-1.7-17.9-1.7,17.9h3.4Z"></path><path class="st0" d="M42.2,75.1h4.3v30.2h4.8v3.4h-9.1s0-33.6,0-33.6Z"></path><path class="st0" d="M52.5,75.1h4.3v33.6h-4.3v-33.6Z"></path><path class="st0" d="M59,75.1h4.3v30.2h4.8v3.4h-9.1v-33.6Z"></path></svg>